<?xml version="1.0" standalone="no"?>
<!DOCTYPE svg PUBLIC "-//W3C//DTD SVG 20010904//EN"
 "http://www.w3.org/TR/2001/REC-SVG-20010904/DTD/svg10.dtd">
<svg version="1.0" xmlns="http://www.w3.org/2000/svg"
 width="200.000000pt" height="200.000000pt" viewBox="0 0 200.000000 200.000000"
 preserveAspectRatio="xMidYMid meet">
<metadata>
Created by potrace 1.14, written by Peter Selinger 2001-2017
</metadata>
<g transform="translate(0.000000,200.000000) scale(0.100000,-0.100000)"
fill="#000000" stroke="none">
<path d="M749 1473 c-2 -24 2 -57 7 -62 2 -2 20 -4 39 -4 20 0 32 -4 28 -10
-4 -6 -1 -7 7 -2 20 13 121 14 113 2 -4 -6 -1 -7 7 -2 20 12 121 14 114 3 -4
-6 0 -7 12 -1 11 5 56 9 102 8 45 0 83 3 83 7 5 33 3 55 -8 66 -9 9 -74 12
-257 12 -227 0 -246 -1 -247 -17z"/>
<path d="M378 1445 c-60 -13 -159 -57 -177 -79 -8 -10 -2 -21 27 -49 52 -51
84 -77 94 -77 4 0 8 -8 8 -17 0 -15 2 -16 10 -3 9 13 10 13 10 0 0 -12 2 -12
9 -2 4 7 17 15 27 17 10 2 19 4 19 6 0 5 55 10 99 9 28 0 56 -6 64 -13 8 -7
17 -11 19 -9 10 7 33 1 28 -8 -3 -5 3 -10 13 -10 11 0 25 -7 32 -15 7 -8 16
-13 20 -10 4 2 17 -7 29 -21 12 -14 25 -23 29 -21 4 2 32 -21 62 -50 30 -30
51 -53 45 -52 -5 1 -30 1 -55 0 -45 -1 -45 -1 -46 -36 0 -23 4 -35 13 -35 7 0
13 -4 13 -9 0 -5 14 -7 30 -5 41 7 38 -8 -13 -51 l-43 -37 1 -109 c1 -69 6
-114 13 -121 9 -9 12 -9 12 0 0 7 6 12 14 12 7 0 25 9 38 20 14 10 28 17 31
14 3 -3 8 4 12 15 3 12 10 19 15 16 4 -3 10 2 14 10 3 8 12 15 21 15 8 0 15 7
15 17 0 9 3 14 6 10 8 -8 33 16 27 26 -2 4 3 7 11 7 9 0 16 5 16 10 0 23 28 6
88 -50 34 -32 62 -56 62 -53 0 4 10 -3 23 -14 12 -11 40 -30 62 -43 22 -13 43
-28 46 -32 3 -5 12 -8 20 -6 8 2 13 -3 11 -10 -1 -8 2 -11 7 -8 5 4 12 2 16
-4 4 -6 10 -8 15 -5 5 3 22 -1 38 -9 16 -8 32 -12 36 -9 3 4 6 1 6 -4 0 -6 8
-10 18 -8 9 1 23 -2 30 -8 8 -6 12 -5 12 4 0 9 3 10 8 4 9 -12 102 -13 102 -1
0 4 7 5 16 2 9 -3 21 -3 27 1 13 8 15 8 62 18 17 3 32 10 33 16 2 5 10 9 18 9
8 0 14 5 14 11 0 5 5 7 10 4 6 -3 10 -1 10 5 0 6 4 9 8 6 5 -3 16 3 24 12 9 9
35 35 57 57 23 22 44 48 47 57 3 10 10 18 15 18 6 0 7 5 4 10 -3 6 -3 10 2 10
13 0 35 58 27 71 -5 8 -3 9 6 4 10 -6 12 -3 8 13 -4 14 -2 20 4 16 6 -4 8 1 3
15 -3 11 -3 21 2 21 4 0 7 28 6 62 -4 104 -9 129 -24 139 -12 7 -12 9 1 9 11
0 12 3 3 8 -11 7 -30 47 -31 65 0 5 -11 17 -23 28 -12 10 -18 19 -13 19 5 0
-17 24 -48 53 -120 113 -277 164 -422 136 -103 -19 -264 -111 -374 -213 -53
-50 -73 -64 -71 -50 0 3 -13 15 -28 27 -15 12 -35 28 -43 36 -69 67 -233 164
-323 191 -56 17 -153 19 -219 5z m1191 -199 c6 -4 11 -1 12 6 0 10 2 10 6 0 2
-6 9 -10 14 -6 5 3 9 0 9 -7 0 -7 3 -10 6 -6 12 12 82 -32 116 -73 107 -125
64 -298 -96 -383 -64 -34 -173 -31 -246 6 -80 41 -179 110 -180 125 0 6 -5 12
-11 12 -6 0 -17 7 -25 15 -14 13 -10 17 12 14 4 0 11 5 15 13 7 11 9 11 9 -1
0 -11 3 -11 15 -1 11 9 15 9 15 1 0 -7 5 -9 10 -6 6 4 8 11 5 16 -4 5 0 9 7
10 10 0 11 2 0 6 -10 4 -10 8 0 21 10 12 10 14 1 8 -8 -4 -13 -1 -13 8 0 17
-8 19 -52 16 -16 -1 -28 2 -28 6 0 14 128 123 137 116 7 -5 31 23 25 32 -3 5
0 6 7 2 7 -5 20 -1 31 9 10 9 24 18 32 19 7 2 26 8 41 15 16 6 33 9 38 5 5 -3
9 -1 9 5 0 11 61 8 79 -3z"/>
<path d="M1314 1116 c-7 -18 0 -237 7 -234 3 2 12 -2 20 -8 8 -7 22 -9 35 -4
17 7 21 16 19 44 -2 20 1 36 5 36 5 0 7 -12 6 -27 -4 -39 18 -60 61 -55 24 3
31 7 22 13 -11 7 -11 9 2 9 8 0 20 -5 26 -11 12 -12 124 -16 142 -5 6 4 11 1
11 -6 0 -11 2 -11 9 0 4 8 8 65 8 128 0 114 0 114 -25 121 -21 5 -104 7 -147
4 -6 -1 -12 -13 -13 -28 -3 -36 -12 -43 -12 -9 0 32 -39 52 -70 36 -13 -7 -34
-7 -60 -1 -31 7 -43 6 -46 -3z m92 -41 c0 -14 -3 -25 -7 -25 -3 0 -6 11 -6 25
0 14 3 25 6 25 4 0 7 -11 7 -25z m99 -95 c0 -38 -3 -70 -7 -70 -5 0 -7 32 -7
70 1 39 4 70 8 70 3 0 6 -31 6 -70z m-98 45 c0 -8 -4 -15 -9 -15 -10 0 -11 14
-1 23 9 10 10 9 10 -8z m190 -52 c-3 -10 -5 -2 -5 17 0 19 2 27 5 18 2 -10 2
-26 0 -35z"/>
<path d="M91 1258 l-20 -33 22 -20 c31 -28 81 -60 90 -57 4 1 7 -2 7 -7 0 -5
9 -13 20 -16 11 -4 18 -11 15 -16 -3 -5 1 -6 8 -3 8 3 17 15 20 26 3 11 10 17
16 13 20 -12 -2 30 -30 55 -75 70 -100 90 -113 90 -8 0 -23 -15 -35 -32z"/>
<path d="M25 1123 c-14 -35 -13 -176 2 -227 17 -59 60 -142 87 -169 16 -17 21
-17 42 -6 13 7 24 19 24 26 0 8 4 12 9 8 6 -3 15 4 21 15 6 11 15 18 19 16 4
-3 14 6 21 19 7 13 17 22 23 18 11 -7 -23 59 -35 68 -5 3 -9 17 -10 32 -1 15
-6 27 -9 27 -4 0 -6 12 -5 28 2 15 0 34 -5 43 -7 15 -158 119 -171 119 -3 0
-9 -8 -13 -17z"/>
<path d="M333 1119 c-20 -7 -21 -15 -21 -111 0 -117 4 -142 23 -134 8 3 16 0
19 -7 5 -9 7 -9 12 0 3 7 13 9 21 6 12 -5 15 -2 10 10 -3 9 -2 19 3 22 6 4 10
1 10 -6 0 -20 33 -39 47 -27 9 7 13 7 13 0 0 -6 6 -9 13 -6 9 3 13 27 12 84
-1 44 2 80 6 80 4 0 7 -26 5 -57 -4 -84 3 -97 55 -103 44 -5 44 -5 44 -45 0
-34 -4 -42 -30 -55 -42 -21 -171 -19 -210 3 -16 9 -35 17 -42 17 -6 0 -34 -31
-62 -69 -53 -72 -57 -95 -18 -107 12 -4 25 -11 28 -16 3 -4 15 -10 27 -13 11
-2 31 -9 44 -16 13 -7 24 -12 26 -11 1 1 3 2 5 1 8 -2 76 -11 97 -13 14 -1 31
3 39 9 11 7 13 7 7 -2 -4 -7 -3 -13 3 -13 5 0 12 4 16 10 3 5 12 7 19 4 8 -3
17 -1 20 4 3 5 17 8 31 7 14 -2 25 1 25 6 0 5 3 8 8 8 4 -1 10 0 15 1 4 1 13
3 20 4 6 1 11 7 9 14 -1 7 2 12 7 12 6 0 6 12 1 30 -5 17 -5 30 -1 30 4 0 4
27 1 60 -3 33 -3 60 0 60 5 0 5 92 0 115 -1 6 -2 12 -1 15 8 19 4 90 -4 90 -7
0 -7 3 0 8 12 8 14 72 2 72 -4 0 -6 4 -2 9 10 17 -15 23 -92 24 -69 0 -77 -2
-84 -21 -5 -12 -6 -28 -3 -36 3 -8 1 -17 -4 -20 -6 -3 -9 7 -8 24 3 36 -14 53
-50 53 -26 0 -44 -17 -40 -37 1 -6 -2 -1 -8 11 -11 25 -33 33 -63 22z m272
-99 c3 -5 1 -10 -4 -10 -6 0 -11 5 -11 10 0 6 2 10 4 10 3 0 8 -4 11 -10z
m-195 -30 c0 -5 -2 -10 -4 -10 -3 0 -8 5 -11 10 -3 6 -1 10 4 10 6 0 11 -4 11
-10z m193 -5 c4 -8 2 -17 -3 -20 -6 -4 -10 3 -10 14 0 25 6 27 13 6z m-193
-25 c0 -5 -2 -10 -4 -10 -3 0 -8 5 -11 10 -3 6 -1 10 4 10 6 0 11 -4 11 -10z
m0 -30 c0 -5 -2 -10 -4 -10 -3 0 -8 5 -11 10 -3 6 -1 10 4 10 6 0 11 -4 11
-10z"/>
<path d="M748 563 c-2 -17 2 -39 9 -49 7 -10 13 -13 13 -7 0 8 9 9 30 3 17 -5
30 -5 30 -1 0 5 18 5 40 1 22 -4 40 -4 40 -1 0 4 27 4 60 1 33 -3 60 -3 60 0
0 3 36 3 80 0 44 -3 80 -3 80 0 0 4 16 4 35 2 25 -3 35 0 36 9 0 8 2 24 3 36
2 12 -4 25 -13 29 -9 4 -125 8 -258 8 l-241 1 -4 -32z"/>
</g>
</svg>
